<mxfile host="app.diagrams.net" modified="2023-01-31T16:22:23.818Z" agent="5.0 (Macintosh; Intel Mac OS X 10_15_7) AppleWebKit/537.36 (KHTML, like Gecko) Chrome/106.0.0.0 Safari/537.36" etag="tgYQMv--ecYdTzsX5e4v" version="20.8.13" type="github">
  <diagram name="第 1 页" id="bcKH1str0B-BjiNXauVP">
    <mxGraphModel dx="1647" dy="799" grid="1" gridSize="10" guides="1" tooltips="1" connect="1" arrows="1" fold="1" page="1" pageScale="1" pageWidth="827" pageHeight="1169" math="0" shadow="0">
      <root>
        <mxCell id="0" />
        <mxCell id="1" parent="0" />
        <mxCell id="59Mv_a_GQgg7sreX0QQN-1" value="" style="endArrow=none;html=1;rounded=0;" edge="1" parent="1">
          <mxGeometry width="50" height="50" relative="1" as="geometry">
            <mxPoint x="80" y="80" as="sourcePoint" />
            <mxPoint x="1520" y="80" as="targetPoint" />
          </mxGeometry>
        </mxCell>
        <mxCell id="59Mv_a_GQgg7sreX0QQN-2" value="" style="endArrow=none;html=1;rounded=0;" edge="1" parent="1">
          <mxGeometry width="50" height="50" relative="1" as="geometry">
            <mxPoint x="80" y="110" as="sourcePoint" />
            <mxPoint x="1520" y="110" as="targetPoint" />
          </mxGeometry>
        </mxCell>
        <mxCell id="59Mv_a_GQgg7sreX0QQN-3" value="交付流程" style="text;html=1;strokeColor=none;fillColor=none;align=center;verticalAlign=middle;whiteSpace=wrap;rounded=0;" vertex="1" parent="1">
          <mxGeometry x="110" y="80" width="60" height="30" as="geometry" />
        </mxCell>
        <mxCell id="59Mv_a_GQgg7sreX0QQN-4" value="" style="endArrow=none;html=1;rounded=0;" edge="1" parent="1">
          <mxGeometry width="50" height="50" relative="1" as="geometry">
            <mxPoint x="80" y="140" as="sourcePoint" />
            <mxPoint x="1520" y="140" as="targetPoint" />
          </mxGeometry>
        </mxCell>
        <mxCell id="59Mv_a_GQgg7sreX0QQN-6" value="" style="endArrow=none;html=1;rounded=0;" edge="1" parent="1">
          <mxGeometry width="50" height="50" relative="1" as="geometry">
            <mxPoint x="110" y="1120" as="sourcePoint" />
            <mxPoint x="110" y="140" as="targetPoint" />
          </mxGeometry>
        </mxCell>
        <mxCell id="59Mv_a_GQgg7sreX0QQN-7" value="产品/设计" style="text;html=1;strokeColor=none;fillColor=none;align=center;verticalAlign=middle;whiteSpace=wrap;rounded=0;rotation=270;" vertex="1" parent="1">
          <mxGeometry x="60" y="250" width="60" height="30" as="geometry" />
        </mxCell>
        <mxCell id="59Mv_a_GQgg7sreX0QQN-11" value="" style="edgeStyle=orthogonalEdgeStyle;rounded=0;orthogonalLoop=1;jettySize=auto;html=1;" edge="1" parent="1" source="59Mv_a_GQgg7sreX0QQN-8" target="59Mv_a_GQgg7sreX0QQN-9">
          <mxGeometry relative="1" as="geometry" />
        </mxCell>
        <mxCell id="59Mv_a_GQgg7sreX0QQN-8" value="需求收集分析" style="rounded=1;whiteSpace=wrap;html=1;" vertex="1" parent="1">
          <mxGeometry x="130" y="150" width="100" height="30" as="geometry" />
        </mxCell>
        <mxCell id="59Mv_a_GQgg7sreX0QQN-12" value="" style="edgeStyle=orthogonalEdgeStyle;rounded=0;orthogonalLoop=1;jettySize=auto;html=1;" edge="1" parent="1" source="59Mv_a_GQgg7sreX0QQN-9" target="59Mv_a_GQgg7sreX0QQN-10">
          <mxGeometry relative="1" as="geometry" />
        </mxCell>
        <mxCell id="59Mv_a_GQgg7sreX0QQN-9" value="需求创建" style="rounded=0;whiteSpace=wrap;html=1;" vertex="1" parent="1">
          <mxGeometry x="130" y="210" width="100" height="30" as="geometry" />
        </mxCell>
        <mxCell id="59Mv_a_GQgg7sreX0QQN-16" value="" style="edgeStyle=orthogonalEdgeStyle;rounded=0;orthogonalLoop=1;jettySize=auto;html=1;" edge="1" parent="1" source="59Mv_a_GQgg7sreX0QQN-10" target="59Mv_a_GQgg7sreX0QQN-14">
          <mxGeometry relative="1" as="geometry" />
        </mxCell>
        <mxCell id="59Mv_a_GQgg7sreX0QQN-10" value="需求细化" style="rounded=0;whiteSpace=wrap;html=1;" vertex="1" parent="1">
          <mxGeometry x="270" y="210" width="100" height="30" as="geometry" />
        </mxCell>
        <mxCell id="59Mv_a_GQgg7sreX0QQN-13" value="产品 leader 评审" style="rounded=0;whiteSpace=wrap;html=1;" vertex="1" parent="1">
          <mxGeometry x="270" y="270" width="100" height="30" as="geometry" />
        </mxCell>
        <mxCell id="59Mv_a_GQgg7sreX0QQN-17" value="" style="edgeStyle=orthogonalEdgeStyle;rounded=0;orthogonalLoop=1;jettySize=auto;html=1;" edge="1" parent="1" source="59Mv_a_GQgg7sreX0QQN-14" target="59Mv_a_GQgg7sreX0QQN-15">
          <mxGeometry relative="1" as="geometry" />
        </mxCell>
        <mxCell id="59Mv_a_GQgg7sreX0QQN-14" value="交互/原型图设计" style="rounded=0;whiteSpace=wrap;html=1;" vertex="1" parent="1">
          <mxGeometry x="270" y="330" width="100" height="30" as="geometry" />
        </mxCell>
        <mxCell id="59Mv_a_GQgg7sreX0QQN-23" value="" style="edgeStyle=orthogonalEdgeStyle;rounded=0;orthogonalLoop=1;jettySize=auto;html=1;" edge="1" parent="1" source="59Mv_a_GQgg7sreX0QQN-15" target="59Mv_a_GQgg7sreX0QQN-21">
          <mxGeometry relative="1" as="geometry" />
        </mxCell>
        <mxCell id="59Mv_a_GQgg7sreX0QQN-30" style="edgeStyle=orthogonalEdgeStyle;rounded=0;orthogonalLoop=1;jettySize=auto;html=1;entryX=1;entryY=0.5;entryDx=0;entryDy=0;" edge="1" parent="1" source="59Mv_a_GQgg7sreX0QQN-15" target="59Mv_a_GQgg7sreX0QQN-10">
          <mxGeometry relative="1" as="geometry">
            <mxPoint x="410" y="230" as="targetPoint" />
            <Array as="points">
              <mxPoint x="410" y="410" />
              <mxPoint x="410" y="225" />
            </Array>
          </mxGeometry>
        </mxCell>
        <mxCell id="59Mv_a_GQgg7sreX0QQN-15" value="需求评审" style="rhombus;whiteSpace=wrap;html=1;" vertex="1" parent="1">
          <mxGeometry x="270" y="390" width="100" height="40" as="geometry" />
        </mxCell>
        <mxCell id="59Mv_a_GQgg7sreX0QQN-18" value="" style="endArrow=none;html=1;rounded=0;entryX=0;entryY=0.5;entryDx=0;entryDy=0;" edge="1" parent="1" target="59Mv_a_GQgg7sreX0QQN-15">
          <mxGeometry width="50" height="50" relative="1" as="geometry">
            <mxPoint x="80" y="410" as="sourcePoint" />
            <mxPoint x="140" y="350" as="targetPoint" />
          </mxGeometry>
        </mxCell>
        <mxCell id="59Mv_a_GQgg7sreX0QQN-19" value="" style="endArrow=none;html=1;rounded=0;exitX=1;exitY=0.5;exitDx=0;exitDy=0;" edge="1" parent="1" source="59Mv_a_GQgg7sreX0QQN-15">
          <mxGeometry width="50" height="50" relative="1" as="geometry">
            <mxPoint x="410" y="440" as="sourcePoint" />
            <mxPoint x="1520" y="410" as="targetPoint" />
          </mxGeometry>
        </mxCell>
        <mxCell id="59Mv_a_GQgg7sreX0QQN-26" value="" style="edgeStyle=orthogonalEdgeStyle;rounded=0;orthogonalLoop=1;jettySize=auto;html=1;" edge="1" parent="1" source="59Mv_a_GQgg7sreX0QQN-21" target="59Mv_a_GQgg7sreX0QQN-25">
          <mxGeometry relative="1" as="geometry" />
        </mxCell>
        <mxCell id="59Mv_a_GQgg7sreX0QQN-21" value="架构设计" style="rounded=0;whiteSpace=wrap;html=1;dashed=1;" vertex="1" parent="1">
          <mxGeometry x="270" y="460" width="100" height="30" as="geometry" />
        </mxCell>
        <mxCell id="59Mv_a_GQgg7sreX0QQN-24" value="技术调研&amp;amp;试验" style="rounded=0;whiteSpace=wrap;html=1;dashed=1;" vertex="1" parent="1">
          <mxGeometry x="270" y="520" width="100" height="30" as="geometry" />
        </mxCell>
        <mxCell id="59Mv_a_GQgg7sreX0QQN-29" value="" style="edgeStyle=orthogonalEdgeStyle;rounded=0;orthogonalLoop=1;jettySize=auto;html=1;" edge="1" parent="1" source="59Mv_a_GQgg7sreX0QQN-25" target="59Mv_a_GQgg7sreX0QQN-28">
          <mxGeometry relative="1" as="geometry" />
        </mxCell>
        <mxCell id="59Mv_a_GQgg7sreX0QQN-25" value="任务拆分" style="rounded=0;whiteSpace=wrap;html=1;" vertex="1" parent="1">
          <mxGeometry x="270" y="584.5" width="100" height="30" as="geometry" />
        </mxCell>
        <mxCell id="59Mv_a_GQgg7sreX0QQN-36" value="" style="edgeStyle=orthogonalEdgeStyle;rounded=0;orthogonalLoop=1;jettySize=auto;html=1;" edge="1" parent="1" source="59Mv_a_GQgg7sreX0QQN-28">
          <mxGeometry relative="1" as="geometry">
            <mxPoint x="320" y="770" as="targetPoint" />
          </mxGeometry>
        </mxCell>
        <mxCell id="59Mv_a_GQgg7sreX0QQN-28" value="评估工作量&amp;amp;确认排期" style="rounded=0;whiteSpace=wrap;html=1;" vertex="1" parent="1">
          <mxGeometry x="260" y="650" width="120" height="30" as="geometry" />
        </mxCell>
        <mxCell id="59Mv_a_GQgg7sreX0QQN-31" value="N" style="text;html=1;strokeColor=none;fillColor=none;align=center;verticalAlign=middle;whiteSpace=wrap;rounded=0;" vertex="1" parent="1">
          <mxGeometry x="360" y="380" width="60" height="30" as="geometry" />
        </mxCell>
        <mxCell id="59Mv_a_GQgg7sreX0QQN-32" value="Y" style="text;html=1;strokeColor=none;fillColor=none;align=center;verticalAlign=middle;whiteSpace=wrap;rounded=0;" vertex="1" parent="1">
          <mxGeometry x="320" y="430" width="60" height="30" as="geometry" />
        </mxCell>
        <mxCell id="59Mv_a_GQgg7sreX0QQN-33" value="测试用例编写" style="rounded=0;whiteSpace=wrap;html=1;" vertex="1" parent="1">
          <mxGeometry x="270" y="710" width="100" height="30" as="geometry" />
        </mxCell>
        <mxCell id="59Mv_a_GQgg7sreX0QQN-37" value="" style="endArrow=none;html=1;rounded=0;" edge="1" parent="1">
          <mxGeometry width="50" height="50" relative="1" as="geometry">
            <mxPoint x="440" y="1120" as="sourcePoint" />
            <mxPoint x="440" y="110" as="targetPoint" />
          </mxGeometry>
        </mxCell>
        <mxCell id="59Mv_a_GQgg7sreX0QQN-48" value="" style="edgeStyle=orthogonalEdgeStyle;rounded=0;orthogonalLoop=1;jettySize=auto;html=1;" edge="1" parent="1" source="59Mv_a_GQgg7sreX0QQN-38" target="59Mv_a_GQgg7sreX0QQN-46">
          <mxGeometry relative="1" as="geometry" />
        </mxCell>
        <mxCell id="59Mv_a_GQgg7sreX0QQN-38" value="检出个人分支" style="rounded=0;whiteSpace=wrap;html=1;" vertex="1" parent="1">
          <mxGeometry x="460" y="585" width="100" height="30" as="geometry" />
        </mxCell>
        <mxCell id="59Mv_a_GQgg7sreX0QQN-40" style="edgeStyle=orthogonalEdgeStyle;rounded=0;orthogonalLoop=1;jettySize=auto;html=1;entryX=0;entryY=0.5;entryDx=0;entryDy=0;" edge="1" parent="1" source="59Mv_a_GQgg7sreX0QQN-39" target="59Mv_a_GQgg7sreX0QQN-38">
          <mxGeometry relative="1" as="geometry" />
        </mxCell>
        <mxCell id="59Mv_a_GQgg7sreX0QQN-39" value="测试用例评审" style="rhombus;whiteSpace=wrap;html=1;" vertex="1" parent="1">
          <mxGeometry x="270" y="770" width="100" height="40" as="geometry" />
        </mxCell>
        <mxCell id="59Mv_a_GQgg7sreX0QQN-41" value="需求阶段" style="text;html=1;strokeColor=none;fillColor=none;align=center;verticalAlign=middle;whiteSpace=wrap;rounded=0;" vertex="1" parent="1">
          <mxGeometry x="240" y="110" width="60" height="30" as="geometry" />
        </mxCell>
        <mxCell id="59Mv_a_GQgg7sreX0QQN-82" value="" style="edgeStyle=orthogonalEdgeStyle;rounded=0;orthogonalLoop=1;jettySize=auto;html=1;" edge="1" parent="1" source="59Mv_a_GQgg7sreX0QQN-42" target="59Mv_a_GQgg7sreX0QQN-81">
          <mxGeometry relative="1" as="geometry" />
        </mxCell>
        <mxCell id="59Mv_a_GQgg7sreX0QQN-42" value="需求变更" style="rounded=1;whiteSpace=wrap;html=1;" vertex="1" parent="1">
          <mxGeometry x="710" y="160" width="580" height="30" as="geometry" />
        </mxCell>
        <mxCell id="59Mv_a_GQgg7sreX0QQN-97" style="edgeStyle=orthogonalEdgeStyle;rounded=0;orthogonalLoop=1;jettySize=auto;html=1;entryX=0;entryY=0.5;entryDx=0;entryDy=0;" edge="1" parent="1" source="59Mv_a_GQgg7sreX0QQN-44" target="59Mv_a_GQgg7sreX0QQN-92">
          <mxGeometry relative="1" as="geometry" />
        </mxCell>
        <mxCell id="59Mv_a_GQgg7sreX0QQN-44" value="需求编码" style="rounded=0;whiteSpace=wrap;html=1;" vertex="1" parent="1">
          <mxGeometry x="600" y="460" width="100" height="30" as="geometry" />
        </mxCell>
        <mxCell id="59Mv_a_GQgg7sreX0QQN-98" style="edgeStyle=orthogonalEdgeStyle;rounded=0;orthogonalLoop=1;jettySize=auto;html=1;entryX=0;entryY=0.5;entryDx=0;entryDy=0;" edge="1" parent="1" source="59Mv_a_GQgg7sreX0QQN-45" target="59Mv_a_GQgg7sreX0QQN-92">
          <mxGeometry relative="1" as="geometry" />
        </mxCell>
        <mxCell id="59Mv_a_GQgg7sreX0QQN-45" value="单元测试" style="rounded=0;whiteSpace=wrap;html=1;" vertex="1" parent="1">
          <mxGeometry x="600" y="520" width="100" height="30" as="geometry" />
        </mxCell>
        <mxCell id="59Mv_a_GQgg7sreX0QQN-99" style="edgeStyle=orthogonalEdgeStyle;rounded=0;orthogonalLoop=1;jettySize=auto;html=1;entryX=0;entryY=0.5;entryDx=0;entryDy=0;" edge="1" parent="1" source="59Mv_a_GQgg7sreX0QQN-46" target="59Mv_a_GQgg7sreX0QQN-92">
          <mxGeometry relative="1" as="geometry" />
        </mxCell>
        <mxCell id="59Mv_a_GQgg7sreX0QQN-46" value="代码规范检查" style="rounded=0;whiteSpace=wrap;html=1;" vertex="1" parent="1">
          <mxGeometry x="600" y="586.75" width="100" height="25.5" as="geometry" />
        </mxCell>
        <mxCell id="59Mv_a_GQgg7sreX0QQN-100" style="edgeStyle=orthogonalEdgeStyle;rounded=0;orthogonalLoop=1;jettySize=auto;html=1;entryX=0;entryY=0.5;entryDx=0;entryDy=0;" edge="1" parent="1" source="59Mv_a_GQgg7sreX0QQN-47" target="59Mv_a_GQgg7sreX0QQN-92">
          <mxGeometry relative="1" as="geometry" />
        </mxCell>
        <mxCell id="59Mv_a_GQgg7sreX0QQN-47" value="安全检查" style="rounded=0;whiteSpace=wrap;html=1;" vertex="1" parent="1">
          <mxGeometry x="600" y="650" width="100" height="25.5" as="geometry" />
        </mxCell>
        <mxCell id="59Mv_a_GQgg7sreX0QQN-49" value="" style="endArrow=classic;html=1;rounded=0;entryX=0;entryY=0.5;entryDx=0;entryDy=0;" edge="1" parent="1" target="59Mv_a_GQgg7sreX0QQN-44">
          <mxGeometry width="50" height="50" relative="1" as="geometry">
            <mxPoint x="560" y="600" as="sourcePoint" />
            <mxPoint x="570" y="460" as="targetPoint" />
            <Array as="points">
              <mxPoint x="580" y="600" />
              <mxPoint x="580" y="475" />
            </Array>
          </mxGeometry>
        </mxCell>
        <mxCell id="59Mv_a_GQgg7sreX0QQN-50" value="" style="endArrow=classic;html=1;rounded=0;exitX=1;exitY=0.5;exitDx=0;exitDy=0;entryX=0;entryY=0.5;entryDx=0;entryDy=0;" edge="1" parent="1" source="59Mv_a_GQgg7sreX0QQN-38" target="59Mv_a_GQgg7sreX0QQN-45">
          <mxGeometry width="50" height="50" relative="1" as="geometry">
            <mxPoint x="540" y="730" as="sourcePoint" />
            <mxPoint x="590" y="680" as="targetPoint" />
            <Array as="points">
              <mxPoint x="580" y="600" />
              <mxPoint x="580" y="535" />
            </Array>
          </mxGeometry>
        </mxCell>
        <mxCell id="59Mv_a_GQgg7sreX0QQN-51" value="" style="endArrow=classic;html=1;rounded=0;exitX=1;exitY=0.5;exitDx=0;exitDy=0;entryX=0;entryY=0.5;entryDx=0;entryDy=0;" edge="1" parent="1" source="59Mv_a_GQgg7sreX0QQN-38" target="59Mv_a_GQgg7sreX0QQN-47">
          <mxGeometry width="50" height="50" relative="1" as="geometry">
            <mxPoint x="530" y="700" as="sourcePoint" />
            <mxPoint x="590" y="670" as="targetPoint" />
            <Array as="points">
              <mxPoint x="580" y="600" />
              <mxPoint x="580" y="663" />
            </Array>
          </mxGeometry>
        </mxCell>
        <mxCell id="59Mv_a_GQgg7sreX0QQN-58" value="" style="edgeStyle=orthogonalEdgeStyle;rounded=0;orthogonalLoop=1;jettySize=auto;html=1;" edge="1" parent="1" source="59Mv_a_GQgg7sreX0QQN-52" target="59Mv_a_GQgg7sreX0QQN-57">
          <mxGeometry relative="1" as="geometry" />
        </mxCell>
        <mxCell id="59Mv_a_GQgg7sreX0QQN-52" value="部署" style="rounded=0;whiteSpace=wrap;html=1;" vertex="1" parent="1">
          <mxGeometry x="740" y="585" width="100" height="30" as="geometry" />
        </mxCell>
        <mxCell id="59Mv_a_GQgg7sreX0QQN-60" value="" style="edgeStyle=orthogonalEdgeStyle;rounded=0;orthogonalLoop=1;jettySize=auto;html=1;" edge="1" parent="1" source="59Mv_a_GQgg7sreX0QQN-57">
          <mxGeometry relative="1" as="geometry">
            <mxPoint x="790" y="710" as="targetPoint" />
          </mxGeometry>
        </mxCell>
        <mxCell id="59Mv_a_GQgg7sreX0QQN-57" value="调试" style="rounded=0;whiteSpace=wrap;html=1;" vertex="1" parent="1">
          <mxGeometry x="740" y="650" width="100" height="30" as="geometry" />
        </mxCell>
        <mxCell id="59Mv_a_GQgg7sreX0QQN-63" style="edgeStyle=orthogonalEdgeStyle;rounded=0;orthogonalLoop=1;jettySize=auto;html=1;" edge="1" parent="1" source="59Mv_a_GQgg7sreX0QQN-61">
          <mxGeometry relative="1" as="geometry">
            <mxPoint x="580" y="600" as="targetPoint" />
          </mxGeometry>
        </mxCell>
        <mxCell id="59Mv_a_GQgg7sreX0QQN-68" value="" style="edgeStyle=orthogonalEdgeStyle;rounded=0;orthogonalLoop=1;jettySize=auto;html=1;entryX=0;entryY=0.5;entryDx=0;entryDy=0;" edge="1" parent="1" source="59Mv_a_GQgg7sreX0QQN-61" target="59Mv_a_GQgg7sreX0QQN-146">
          <mxGeometry relative="1" as="geometry" />
        </mxCell>
        <mxCell id="59Mv_a_GQgg7sreX0QQN-61" value="执行 P0 用例" style="rhombus;whiteSpace=wrap;html=1;" vertex="1" parent="1">
          <mxGeometry x="740" y="710" width="100" height="40" as="geometry" />
        </mxCell>
        <mxCell id="59Mv_a_GQgg7sreX0QQN-64" value="N" style="text;html=1;strokeColor=none;fillColor=none;align=center;verticalAlign=middle;whiteSpace=wrap;rounded=0;" vertex="1" parent="1">
          <mxGeometry x="680" y="700" width="60" height="30" as="geometry" />
        </mxCell>
        <mxCell id="59Mv_a_GQgg7sreX0QQN-66" value="" style="endArrow=none;html=1;rounded=0;" edge="1" parent="1">
          <mxGeometry width="50" height="50" relative="1" as="geometry">
            <mxPoint x="860" y="1120" as="sourcePoint" />
            <mxPoint x="860" y="110" as="targetPoint" />
          </mxGeometry>
        </mxCell>
        <mxCell id="59Mv_a_GQgg7sreX0QQN-75" style="edgeStyle=orthogonalEdgeStyle;rounded=0;orthogonalLoop=1;jettySize=auto;html=1;entryX=0.5;entryY=0;entryDx=0;entryDy=0;exitX=1;exitY=0.5;exitDx=0;exitDy=0;" edge="1" parent="1" source="59Mv_a_GQgg7sreX0QQN-67" target="59Mv_a_GQgg7sreX0QQN-71">
          <mxGeometry relative="1" as="geometry" />
        </mxCell>
        <mxCell id="59Mv_a_GQgg7sreX0QQN-67" value="提测" style="rounded=0;whiteSpace=wrap;html=1;" vertex="1" parent="1">
          <mxGeometry x="890" y="715" width="100" height="30" as="geometry" />
        </mxCell>
        <mxCell id="59Mv_a_GQgg7sreX0QQN-69" value="Y" style="text;html=1;strokeColor=none;fillColor=none;align=center;verticalAlign=middle;whiteSpace=wrap;rounded=0;" vertex="1" parent="1">
          <mxGeometry x="820" y="690" width="60" height="30" as="geometry" />
        </mxCell>
        <mxCell id="59Mv_a_GQgg7sreX0QQN-70" value="开发阶段" style="text;html=1;strokeColor=none;fillColor=none;align=center;verticalAlign=middle;whiteSpace=wrap;rounded=0;" vertex="1" parent="1">
          <mxGeometry x="620" y="110" width="60" height="30" as="geometry" />
        </mxCell>
        <mxCell id="59Mv_a_GQgg7sreX0QQN-76" style="edgeStyle=orthogonalEdgeStyle;rounded=0;orthogonalLoop=1;jettySize=auto;html=1;" edge="1" parent="1" source="59Mv_a_GQgg7sreX0QQN-71">
          <mxGeometry relative="1" as="geometry">
            <mxPoint x="580" y="600" as="targetPoint" />
          </mxGeometry>
        </mxCell>
        <mxCell id="59Mv_a_GQgg7sreX0QQN-89" style="edgeStyle=orthogonalEdgeStyle;rounded=0;orthogonalLoop=1;jettySize=auto;html=1;entryX=0;entryY=0.5;entryDx=0;entryDy=0;exitX=1;exitY=0.5;exitDx=0;exitDy=0;" edge="1" parent="1" source="59Mv_a_GQgg7sreX0QQN-71" target="59Mv_a_GQgg7sreX0QQN-88">
          <mxGeometry relative="1" as="geometry">
            <Array as="points">
              <mxPoint x="1100" y="325" />
            </Array>
          </mxGeometry>
        </mxCell>
        <mxCell id="59Mv_a_GQgg7sreX0QQN-101" style="edgeStyle=orthogonalEdgeStyle;rounded=0;orthogonalLoop=1;jettySize=auto;html=1;entryX=0;entryY=0.5;entryDx=0;entryDy=0;" edge="1" parent="1" source="59Mv_a_GQgg7sreX0QQN-71" target="59Mv_a_GQgg7sreX0QQN-90">
          <mxGeometry relative="1" as="geometry" />
        </mxCell>
        <mxCell id="59Mv_a_GQgg7sreX0QQN-71" value="测试验证是否通过" style="rhombus;whiteSpace=wrap;html=1;" vertex="1" parent="1">
          <mxGeometry x="960" y="780" width="140" height="40" as="geometry" />
        </mxCell>
        <mxCell id="59Mv_a_GQgg7sreX0QQN-77" value="N" style="text;html=1;strokeColor=none;fillColor=none;align=center;verticalAlign=middle;whiteSpace=wrap;rounded=0;" vertex="1" parent="1">
          <mxGeometry x="900" y="775" width="60" height="30" as="geometry" />
        </mxCell>
        <mxCell id="59Mv_a_GQgg7sreX0QQN-78" value="" style="endArrow=none;html=1;rounded=0;" edge="1" parent="1">
          <mxGeometry width="50" height="50" relative="1" as="geometry">
            <mxPoint x="1150" y="1120" as="sourcePoint" />
            <mxPoint x="1150" y="110" as="targetPoint" />
          </mxGeometry>
        </mxCell>
        <mxCell id="59Mv_a_GQgg7sreX0QQN-79" value="开发" style="text;html=1;strokeColor=none;fillColor=none;align=center;verticalAlign=middle;whiteSpace=wrap;rounded=0;rotation=270;" vertex="1" parent="1">
          <mxGeometry x="60" y="645.5" width="60" height="30" as="geometry" />
        </mxCell>
        <mxCell id="59Mv_a_GQgg7sreX0QQN-80" value="测试阶段" style="text;html=1;strokeColor=none;fillColor=none;align=center;verticalAlign=middle;whiteSpace=wrap;rounded=0;" vertex="1" parent="1">
          <mxGeometry x="980" y="110" width="60" height="30" as="geometry" />
        </mxCell>
        <mxCell id="59Mv_a_GQgg7sreX0QQN-84" style="edgeStyle=orthogonalEdgeStyle;rounded=0;orthogonalLoop=1;jettySize=auto;html=1;exitX=0;exitY=0.5;exitDx=0;exitDy=0;" edge="1" parent="1" source="59Mv_a_GQgg7sreX0QQN-81">
          <mxGeometry relative="1" as="geometry">
            <mxPoint x="180" y="210" as="targetPoint" />
            <Array as="points">
              <mxPoint x="880" y="200" />
              <mxPoint x="180" y="200" />
            </Array>
          </mxGeometry>
        </mxCell>
        <mxCell id="59Mv_a_GQgg7sreX0QQN-87" style="edgeStyle=orthogonalEdgeStyle;rounded=0;orthogonalLoop=1;jettySize=auto;html=1;entryX=1;entryY=0.5;entryDx=0;entryDy=0;" edge="1" parent="1" source="59Mv_a_GQgg7sreX0QQN-81" target="59Mv_a_GQgg7sreX0QQN-10">
          <mxGeometry relative="1" as="geometry" />
        </mxCell>
        <mxCell id="59Mv_a_GQgg7sreX0QQN-81" value="评估变更工作量是否超过 3 人天" style="rhombus;whiteSpace=wrap;html=1;" vertex="1" parent="1">
          <mxGeometry x="880" y="240" width="240" height="40" as="geometry" />
        </mxCell>
        <mxCell id="59Mv_a_GQgg7sreX0QQN-85" value="Y" style="text;html=1;strokeColor=none;fillColor=none;align=center;verticalAlign=middle;whiteSpace=wrap;rounded=0;" vertex="1" parent="1">
          <mxGeometry x="800" y="200" width="60" height="30" as="geometry" />
        </mxCell>
        <mxCell id="59Mv_a_GQgg7sreX0QQN-86" value="N" style="text;html=1;strokeColor=none;fillColor=none;align=center;verticalAlign=middle;whiteSpace=wrap;rounded=0;" vertex="1" parent="1">
          <mxGeometry x="630" y="230" width="60" height="30" as="geometry" />
        </mxCell>
        <mxCell id="59Mv_a_GQgg7sreX0QQN-88" value="产品体验" style="rounded=0;whiteSpace=wrap;html=1;" vertex="1" parent="1">
          <mxGeometry x="1116" y="310" width="250" height="30" as="geometry" />
        </mxCell>
        <mxCell id="59Mv_a_GQgg7sreX0QQN-106" style="edgeStyle=orthogonalEdgeStyle;rounded=0;orthogonalLoop=1;jettySize=auto;html=1;entryX=0.5;entryY=0;entryDx=0;entryDy=0;" edge="1" parent="1" source="59Mv_a_GQgg7sreX0QQN-90" target="59Mv_a_GQgg7sreX0QQN-103">
          <mxGeometry relative="1" as="geometry" />
        </mxCell>
        <mxCell id="59Mv_a_GQgg7sreX0QQN-90" value="打 tag" style="rounded=0;whiteSpace=wrap;html=1;" vertex="1" parent="1">
          <mxGeometry x="1170" y="460" width="100" height="30" as="geometry" />
        </mxCell>
        <mxCell id="59Mv_a_GQgg7sreX0QQN-96" style="edgeStyle=orthogonalEdgeStyle;rounded=0;orthogonalLoop=1;jettySize=auto;html=1;entryX=0.5;entryY=0;entryDx=0;entryDy=0;" edge="1" parent="1" source="59Mv_a_GQgg7sreX0QQN-92" target="59Mv_a_GQgg7sreX0QQN-52">
          <mxGeometry relative="1" as="geometry" />
        </mxCell>
        <mxCell id="59Mv_a_GQgg7sreX0QQN-92" value="构建" style="rounded=0;whiteSpace=wrap;html=1;" vertex="1" parent="1">
          <mxGeometry x="740" y="520" width="100" height="30" as="geometry" />
        </mxCell>
        <mxCell id="59Mv_a_GQgg7sreX0QQN-102" value="Y" style="text;html=1;strokeColor=none;fillColor=none;align=center;verticalAlign=middle;whiteSpace=wrap;rounded=0;" vertex="1" parent="1">
          <mxGeometry x="1080" y="800" width="60" height="30" as="geometry" />
        </mxCell>
        <mxCell id="59Mv_a_GQgg7sreX0QQN-107" style="edgeStyle=orthogonalEdgeStyle;rounded=0;orthogonalLoop=1;jettySize=auto;html=1;entryX=0.5;entryY=0;entryDx=0;entryDy=0;" edge="1" parent="1" source="59Mv_a_GQgg7sreX0QQN-103" target="59Mv_a_GQgg7sreX0QQN-104">
          <mxGeometry relative="1" as="geometry" />
        </mxCell>
        <mxCell id="59Mv_a_GQgg7sreX0QQN-103" value="构建" style="rounded=0;whiteSpace=wrap;html=1;" vertex="1" parent="1">
          <mxGeometry x="1170" y="520" width="100" height="30" as="geometry" />
        </mxCell>
        <mxCell id="59Mv_a_GQgg7sreX0QQN-108" style="edgeStyle=orthogonalEdgeStyle;rounded=0;orthogonalLoop=1;jettySize=auto;html=1;entryX=0.5;entryY=1;entryDx=0;entryDy=0;" edge="1" parent="1" source="59Mv_a_GQgg7sreX0QQN-104" target="59Mv_a_GQgg7sreX0QQN-88">
          <mxGeometry relative="1" as="geometry">
            <Array as="points">
              <mxPoint x="1310" y="597" />
              <mxPoint x="1310" y="410" />
              <mxPoint x="1241" y="410" />
            </Array>
          </mxGeometry>
        </mxCell>
        <mxCell id="59Mv_a_GQgg7sreX0QQN-110" value="" style="edgeStyle=orthogonalEdgeStyle;rounded=0;orthogonalLoop=1;jettySize=auto;html=1;" edge="1" parent="1" source="59Mv_a_GQgg7sreX0QQN-104">
          <mxGeometry relative="1" as="geometry">
            <mxPoint x="1220" y="645.5" as="targetPoint" />
          </mxGeometry>
        </mxCell>
        <mxCell id="59Mv_a_GQgg7sreX0QQN-118" style="edgeStyle=orthogonalEdgeStyle;rounded=0;orthogonalLoop=1;jettySize=auto;html=1;entryX=0;entryY=0.5;entryDx=0;entryDy=0;" edge="1" parent="1" source="59Mv_a_GQgg7sreX0QQN-104" target="59Mv_a_GQgg7sreX0QQN-116">
          <mxGeometry relative="1" as="geometry">
            <Array as="points">
              <mxPoint x="1160" y="597" />
              <mxPoint x="1160" y="733" />
            </Array>
          </mxGeometry>
        </mxCell>
        <mxCell id="59Mv_a_GQgg7sreX0QQN-128" style="edgeStyle=orthogonalEdgeStyle;rounded=0;orthogonalLoop=1;jettySize=auto;html=1;entryX=0;entryY=0.5;entryDx=0;entryDy=0;" edge="1" parent="1" source="59Mv_a_GQgg7sreX0QQN-104" target="59Mv_a_GQgg7sreX0QQN-130">
          <mxGeometry relative="1" as="geometry">
            <mxPoint x="1370" y="597.25" as="targetPoint" />
          </mxGeometry>
        </mxCell>
        <mxCell id="59Mv_a_GQgg7sreX0QQN-104" value="滚动升级" style="rounded=0;whiteSpace=wrap;html=1;" vertex="1" parent="1">
          <mxGeometry x="1170" y="582.25" width="100" height="30" as="geometry" />
        </mxCell>
        <mxCell id="59Mv_a_GQgg7sreX0QQN-123" style="edgeStyle=orthogonalEdgeStyle;rounded=0;orthogonalLoop=1;jettySize=auto;html=1;entryX=0;entryY=0.5;entryDx=0;entryDy=0;" edge="1" parent="1" source="59Mv_a_GQgg7sreX0QQN-116" target="59Mv_a_GQgg7sreX0QQN-121">
          <mxGeometry relative="1" as="geometry" />
        </mxCell>
        <mxCell id="59Mv_a_GQgg7sreX0QQN-116" value="回归异常" style="rhombus;whiteSpace=wrap;html=1;" vertex="1" parent="1">
          <mxGeometry x="1175" y="715" width="90" height="35" as="geometry" />
        </mxCell>
        <mxCell id="59Mv_a_GQgg7sreX0QQN-122" style="edgeStyle=orthogonalEdgeStyle;rounded=0;orthogonalLoop=1;jettySize=auto;html=1;" edge="1" parent="1" source="59Mv_a_GQgg7sreX0QQN-119" target="59Mv_a_GQgg7sreX0QQN-121">
          <mxGeometry relative="1" as="geometry" />
        </mxCell>
        <mxCell id="59Mv_a_GQgg7sreX0QQN-119" value="监控异常" style="rhombus;whiteSpace=wrap;html=1;" vertex="1" parent="1">
          <mxGeometry x="1175" y="645.5" width="90" height="40" as="geometry" />
        </mxCell>
        <mxCell id="59Mv_a_GQgg7sreX0QQN-131" style="edgeStyle=orthogonalEdgeStyle;rounded=0;orthogonalLoop=1;jettySize=auto;html=1;" edge="1" parent="1" source="59Mv_a_GQgg7sreX0QQN-121">
          <mxGeometry relative="1" as="geometry">
            <mxPoint x="580" y="600" as="targetPoint" />
            <Array as="points">
              <mxPoint x="1360" y="840" />
              <mxPoint x="580" y="840" />
            </Array>
          </mxGeometry>
        </mxCell>
        <mxCell id="59Mv_a_GQgg7sreX0QQN-121" value="回滚到上一版本" style="rounded=0;whiteSpace=wrap;html=1;" vertex="1" parent="1">
          <mxGeometry x="1310" y="717.5" width="100" height="30" as="geometry" />
        </mxCell>
        <mxCell id="59Mv_a_GQgg7sreX0QQN-124" value="Y" style="text;html=1;strokeColor=none;fillColor=none;align=center;verticalAlign=middle;whiteSpace=wrap;rounded=0;" vertex="1" parent="1">
          <mxGeometry x="1310" y="670" width="60" height="30" as="geometry" />
        </mxCell>
        <mxCell id="59Mv_a_GQgg7sreX0QQN-125" value="Y" style="text;html=1;strokeColor=none;fillColor=none;align=center;verticalAlign=middle;whiteSpace=wrap;rounded=0;" vertex="1" parent="1">
          <mxGeometry x="1265" y="740" width="60" height="30" as="geometry" />
        </mxCell>
        <mxCell id="59Mv_a_GQgg7sreX0QQN-129" value="特性环境资源回收" style="rounded=1;whiteSpace=wrap;html=1;" vertex="1" parent="1">
          <mxGeometry x="1385" y="800" width="110" height="30" as="geometry" />
        </mxCell>
        <mxCell id="59Mv_a_GQgg7sreX0QQN-133" value="" style="edgeStyle=orthogonalEdgeStyle;rounded=0;orthogonalLoop=1;jettySize=auto;html=1;" edge="1" parent="1" source="59Mv_a_GQgg7sreX0QQN-130" target="59Mv_a_GQgg7sreX0QQN-132">
          <mxGeometry relative="1" as="geometry" />
        </mxCell>
        <mxCell id="59Mv_a_GQgg7sreX0QQN-130" value="发布完毕" style="rounded=0;whiteSpace=wrap;html=1;" vertex="1" parent="1">
          <mxGeometry x="1390" y="582.25" width="100" height="30" as="geometry" />
        </mxCell>
        <mxCell id="59Mv_a_GQgg7sreX0QQN-134" style="edgeStyle=orthogonalEdgeStyle;rounded=0;orthogonalLoop=1;jettySize=auto;html=1;" edge="1" parent="1" source="59Mv_a_GQgg7sreX0QQN-132" target="59Mv_a_GQgg7sreX0QQN-129">
          <mxGeometry relative="1" as="geometry" />
        </mxCell>
        <mxCell id="59Mv_a_GQgg7sreX0QQN-132" value="合并代码" style="rounded=0;whiteSpace=wrap;html=1;" vertex="1" parent="1">
          <mxGeometry x="1390" y="650" width="100" height="30" as="geometry" />
        </mxCell>
        <mxCell id="59Mv_a_GQgg7sreX0QQN-135" value="" style="endArrow=none;html=1;rounded=0;" edge="1" parent="1">
          <mxGeometry width="50" height="50" relative="1" as="geometry">
            <mxPoint x="80" y="870" as="sourcePoint" />
            <mxPoint x="1520" y="870" as="targetPoint" />
          </mxGeometry>
        </mxCell>
        <mxCell id="59Mv_a_GQgg7sreX0QQN-136" value="发布阶段" style="text;html=1;strokeColor=none;fillColor=none;align=center;verticalAlign=middle;whiteSpace=wrap;rounded=0;" vertex="1" parent="1">
          <mxGeometry x="1306" y="110" width="60" height="30" as="geometry" />
        </mxCell>
        <mxCell id="59Mv_a_GQgg7sreX0QQN-137" value="交付物" style="text;html=1;strokeColor=none;fillColor=none;align=center;verticalAlign=middle;whiteSpace=wrap;rounded=0;rotation=270;" vertex="1" parent="1">
          <mxGeometry x="60" y="1000" width="60" height="30" as="geometry" />
        </mxCell>
        <mxCell id="59Mv_a_GQgg7sreX0QQN-138" value="产品需求" style="shape=document;whiteSpace=wrap;html=1;boundedLbl=1;" vertex="1" parent="1">
          <mxGeometry x="130" y="910" width="120" height="40" as="geometry" />
        </mxCell>
        <mxCell id="59Mv_a_GQgg7sreX0QQN-139" value="需求交互、设计文档" style="shape=document;whiteSpace=wrap;html=1;boundedLbl=1;" vertex="1" parent="1">
          <mxGeometry x="280" y="910" width="120" height="40" as="geometry" />
        </mxCell>
        <mxCell id="59Mv_a_GQgg7sreX0QQN-140" value="开发需求" style="shape=document;whiteSpace=wrap;html=1;boundedLbl=1;" vertex="1" parent="1">
          <mxGeometry x="130" y="980" width="120" height="40" as="geometry" />
        </mxCell>
        <mxCell id="59Mv_a_GQgg7sreX0QQN-141" value="开发方案设计文档" style="shape=document;whiteSpace=wrap;html=1;boundedLbl=1;" vertex="1" parent="1">
          <mxGeometry x="280" y="980" width="120" height="40" as="geometry" />
        </mxCell>
        <mxCell id="59Mv_a_GQgg7sreX0QQN-142" value="测试用例" style="shape=document;whiteSpace=wrap;html=1;boundedLbl=1;" vertex="1" parent="1">
          <mxGeometry x="130" y="1050" width="120" height="40" as="geometry" />
        </mxCell>
        <mxCell id="59Mv_a_GQgg7sreX0QQN-143" value="需求代码" style="shape=document;whiteSpace=wrap;html=1;boundedLbl=1;" vertex="1" parent="1">
          <mxGeometry x="470" y="910" width="120" height="40" as="geometry" />
        </mxCell>
        <mxCell id="59Mv_a_GQgg7sreX0QQN-144" value="单元测试代码" style="shape=document;whiteSpace=wrap;html=1;boundedLbl=1;" vertex="1" parent="1">
          <mxGeometry x="670" y="910" width="120" height="40" as="geometry" />
        </mxCell>
        <mxCell id="59Mv_a_GQgg7sreX0QQN-145" value="自动化测试代码" style="shape=document;whiteSpace=wrap;html=1;boundedLbl=1;" vertex="1" parent="1">
          <mxGeometry x="470" y="980" width="120" height="40" as="geometry" />
        </mxCell>
        <mxCell id="59Mv_a_GQgg7sreX0QQN-148" style="edgeStyle=orthogonalEdgeStyle;rounded=0;orthogonalLoop=1;jettySize=auto;html=1;entryX=0.5;entryY=0;entryDx=0;entryDy=0;" edge="1" parent="1" source="59Mv_a_GQgg7sreX0QQN-146" target="59Mv_a_GQgg7sreX0QQN-67">
          <mxGeometry relative="1" as="geometry" />
        </mxCell>
        <mxCell id="59Mv_a_GQgg7sreX0QQN-146" value="提交合并请求" style="rounded=0;whiteSpace=wrap;html=1;" vertex="1" parent="1">
          <mxGeometry x="890" y="650" width="100" height="30" as="geometry" />
        </mxCell>
        <mxCell id="59Mv_a_GQgg7sreX0QQN-150" value="CR 报告" style="shape=document;whiteSpace=wrap;html=1;boundedLbl=1;" vertex="1" parent="1">
          <mxGeometry x="900" y="910" width="120" height="40" as="geometry" />
        </mxCell>
        <mxCell id="59Mv_a_GQgg7sreX0QQN-151" value="Bug 单" style="shape=document;whiteSpace=wrap;html=1;boundedLbl=1;" vertex="1" parent="1">
          <mxGeometry x="900" y="980" width="120" height="40" as="geometry" />
        </mxCell>
        <mxCell id="59Mv_a_GQgg7sreX0QQN-152" value="代码扫描报告" style="shape=document;whiteSpace=wrap;html=1;boundedLbl=1;" vertex="1" parent="1">
          <mxGeometry x="670" y="980" width="120" height="40" as="geometry" />
        </mxCell>
        <mxCell id="59Mv_a_GQgg7sreX0QQN-153" value="发布计划" style="shape=document;whiteSpace=wrap;html=1;boundedLbl=1;" vertex="1" parent="1">
          <mxGeometry x="1181" y="910" width="120" height="40" as="geometry" />
        </mxCell>
        <mxCell id="59Mv_a_GQgg7sreX0QQN-154" value="监控数据" style="shape=document;whiteSpace=wrap;html=1;boundedLbl=1;" vertex="1" parent="1">
          <mxGeometry x="1350" y="910" width="120" height="40" as="geometry" />
        </mxCell>
        <mxCell id="59Mv_a_GQgg7sreX0QQN-156" value="" style="endArrow=none;html=1;rounded=0;" edge="1" parent="1">
          <mxGeometry width="50" height="50" relative="1" as="geometry">
            <mxPoint x="80" y="1120" as="sourcePoint" />
            <mxPoint x="1520" y="1120" as="targetPoint" />
          </mxGeometry>
        </mxCell>
      </root>
    </mxGraphModel>
  </diagram>
</mxfile>
